<?xml version="1.0" encoding="utf-8"?>
<!-- Generator: Adobe Illustrator 25.2.1, SVG Export Plug-In . SVG Version: 6.00 Build 0)  -->
<svg version="1.1" id="Capa_1" xmlns="http://www.w3.org/2000/svg" xmlns:xlink="http://www.w3.org/1999/xlink" x="0px" y="0px"
	 viewBox="0 0 18 18" style="enable-background:new 0 0 18 18;" xml:space="preserve">
<style type="text/css">
	.st0{fill:#3988C6;}
</style>
<path class="st0" d="M16.71,7.88H3.7l6.11-5.83c0.4-0.38,0.41-1.01,0.03-1.41C9.46,0.24,8.82,0.22,8.42,0.6L0.72,7.96
	c0,0-0.43,0.39-0.43,0.84c0,0.41,0.43,1.01,0.43,1.01l7.69,7.58c0.2,0.19,0.45,0.29,0.7,0.29c0.26,0,0.52-0.1,0.71-0.3
	c0.39-0.39,0.38-1.03-0.01-1.41L3.64,9.88h13.07c0.55,0,1-0.45,1-1S17.26,7.88,16.71,7.88z"/>
</svg>
